# xmcd CD database file
#
# Track frame offsets:
#	150
#	46872
#	114160
#	137722
#	210797
#
# Disc length: 3140 seconds
#
# Revision: 4
# Processed by: cddbd v1.4PL0 Copyright (c) Steve Scherf et al.
# Submitted via: CDex 1.50
#
DISCID=350c4205
DTITLE=Ravi Shankar - The Genius of Ravi Shankar - Disk 2
DYEAR=1900
DGENRE=
TTITLE0=Raga Abhogi
TTITLE1=Raga Des
TTITLE2=Tabla solo-Jhaptal
TTITLE3=Sitar Todi
TTITLE4=Thumri
EXTD=
EXTT0=
EXTT1=
EXTT2=
EXTT3=
EXTT4=
PLAYORDER=
